<?xml version="1.0" encoding="UTF-8" standalone="no"?>
<svg
   width="315pt"
   height="51.260849pt"
   viewBox="0 0 315 51.260849"
   version="1.1"
   id="svg615"
   xmlns="http://www.w3.org/2000/svg"
   xmlns:svg="http://www.w3.org/2000/svg">
  <defs
     id="defs591">
    <clipPath
       id="clip-0">
      <path
         clip-rule="nonzero"
         d="M 0 0 L 61 0 L 61 51.261719 L 0 51.261719 Z M 0 0 "
         id="path588" />
    </clipPath>
  </defs>
  <path
     fill-rule="nonzero"
     fill="rgb(39.99939%, 22.3526%, 65.097046%)"
     fill-opacity="1"
     d="M 108.292969 32.40625 C 108.292969 33.410156 108.164062 34.3125 107.910156 35.117188 C 107.65625 35.917969 107.320312 36.628906 106.902344 37.242188 C 106.484375 37.855469 105.996094 38.378906 105.433594 38.808594 C 104.871094 39.238281 104.292969 39.589844 103.691406 39.863281 C 103.089844 40.140625 102.480469 40.339844 101.859375 40.472656 C 101.238281 40.601562 100.65625 40.667969 100.109375 40.667969 L 80.46875 40.667969 L 80.46875 35.578125 L 100.109375 35.578125 C 101.085938 35.578125 101.847656 35.289062 102.390625 34.714844 C 102.929688 34.140625 103.203125 33.371094 103.203125 32.40625 C 103.203125 31.933594 103.128906 31.503906 102.984375 31.113281 C 102.84375 30.722656 102.636719 30.382812 102.371094 30.09375 C 102.101562 29.808594 101.773438 29.585938 101.390625 29.429688 C 101.003906 29.273438 100.578125 29.195312 100.109375 29.195312 L 88.398438 29.195312 C 87.578125 29.195312 86.6875 29.046875 85.734375 28.753906 C 84.78125 28.460938 83.898438 27.988281 83.082031 27.332031 C 82.265625 26.679688 81.589844 25.828125 81.046875 24.769531 C 80.503906 23.710938 80.234375 22.417969 80.234375 20.890625 C 80.234375 19.363281 80.503906 18.074219 81.046875 17.023438 C 81.589844 15.972656 82.265625 15.121094 83.082031 14.460938 C 83.898438 13.800781 84.78125 13.324219 85.734375 13.03125 C 86.6875 12.738281 87.578125 12.589844 88.398438 12.589844 L 105.726562 12.589844 L 105.726562 17.679688 L 88.398438 17.679688 C 87.433594 17.679688 86.679688 17.972656 86.136719 18.5625 C 85.59375 19.148438 85.324219 19.925781 85.324219 20.890625 C 85.324219 21.871094 85.59375 22.644531 86.136719 23.210938 C 86.679688 23.78125 87.433594 24.0625 88.398438 24.0625 L 100.148438 24.0625 C 100.695312 24.078125 101.277344 24.152344 101.890625 24.289062 C 102.503906 24.425781 103.113281 24.636719 103.71875 24.925781 C 104.328125 25.210938 104.90625 25.574219 105.453125 26.011719 C 106 26.449219 106.488281 26.976562 106.910156 27.589844 C 107.335938 28.203125 107.671875 28.90625 107.921875 29.703125 C 108.167969 30.5 108.292969 31.398438 108.292969 32.40625 Z M 108.292969 32.40625 "
     id="path593" />
  <path
     fill-rule="nonzero"
     fill="rgb(39.99939%, 22.3526%, 65.097046%)"
     fill-opacity="1"
     d="M 132.453125 40.667969 L 118.648438 40.667969 C 117.945312 40.667969 117.175781 40.542969 116.339844 40.296875 C 115.503906 40.046875 114.730469 39.640625 114.019531 39.070312 C 113.308594 38.503906 112.714844 37.765625 112.238281 36.859375 C 111.761719 35.953125 111.523438 34.839844 111.523438 33.519531 L 111.523438 26.628906 C 111.523438 26.144531 111.578125 25.636719 111.6875 25.101562 C 111.800781 24.566406 111.972656 24.035156 112.207031 23.507812 C 112.441406 22.976562 112.746094 22.472656 113.117188 21.988281 C 113.492188 21.503906 113.941406 21.082031 114.46875 20.714844 C 115 20.351562 115.609375 20.054688 116.300781 19.835938 C 116.992188 19.613281 117.777344 19.5 118.648438 19.5 L 132.453125 19.5 L 132.453125 24.59375 L 118.648438 24.59375 C 117.984375 24.59375 117.480469 24.761719 117.132812 25.101562 C 116.785156 25.441406 116.613281 25.964844 116.613281 26.667969 L 116.613281 33.519531 C 116.613281 34.1875 116.789062 34.695312 117.140625 35.046875 C 117.496094 35.402344 118.011719 35.578125 118.6875 35.578125 L 132.453125 35.578125 Z M 132.453125 40.667969 "
     id="path595" />
  <path
     fill-rule="nonzero"
     fill="rgb(39.99939%, 22.3526%, 65.097046%)"
     fill-opacity="1"
     d="M 159.277344 26.511719 C 159.277344 27.214844 159.15625 27.976562 158.90625 28.792969 C 158.660156 29.609375 158.257812 30.367188 157.703125 31.0625 C 157.148438 31.761719 156.421875 32.347656 155.53125 32.816406 C 154.636719 33.285156 153.546875 33.519531 152.269531 33.519531 L 143.085938 33.519531 L 143.085938 28.683594 L 152.269531 28.683594 C 152.960938 28.683594 153.496094 28.472656 153.875 28.046875 C 154.253906 27.625 154.441406 27.097656 154.441406 26.472656 C 154.441406 25.808594 154.230469 25.285156 153.804688 24.90625 C 153.382812 24.527344 152.871094 24.339844 152.269531 24.339844 L 143.085938 24.339844 C 142.394531 24.339844 141.859375 24.550781 141.480469 24.972656 C 141.101562 25.398438 140.914062 25.925781 140.914062 26.550781 L 140.914062 33.660156 C 140.914062 34.335938 141.125 34.867188 141.550781 35.246094 C 141.972656 35.621094 142.5 35.8125 143.125 35.8125 L 152.269531 35.8125 L 152.269531 40.667969 L 143.085938 40.667969 C 142.382812 40.667969 141.621094 40.542969 140.804688 40.296875 C 139.988281 40.046875 139.230469 39.648438 138.535156 39.089844 C 137.835938 38.535156 137.25 37.8125 136.78125 36.917969 C 136.3125 36.023438 136.078125 34.9375 136.078125 33.660156 L 136.078125 26.511719 C 136.078125 25.808594 136.199219 25.046875 136.449219 24.230469 C 136.695312 23.414062 137.097656 22.65625 137.652344 21.960938 C 138.207031 21.261719 138.933594 20.675781 139.824219 20.207031 C 140.71875 19.738281 141.808594 19.5 143.085938 19.5 L 152.269531 19.5 C 152.972656 19.5 153.734375 19.625 154.550781 19.875 C 155.367188 20.121094 156.125 20.523438 156.820312 21.078125 C 157.519531 21.632812 158.105469 22.355469 158.574219 23.25 C 159.042969 24.144531 159.277344 25.230469 159.277344 26.511719 Z M 159.277344 26.511719 "
     id="path597" />
  <path
     fill-rule="nonzero"
     fill="rgb(39.99939%, 22.3526%, 65.097046%)"
     fill-opacity="1"
     d="M 186.164062 40.667969 L 181.070312 40.667969 L 181.070312 28.917969 C 181.070312 28.253906 180.957031 27.65625 180.730469 27.128906 C 180.5 26.601562 180.191406 26.144531 179.800781 25.765625 C 179.40625 25.390625 178.945312 25.097656 178.417969 24.894531 C 177.890625 24.695312 177.320312 24.59375 176.707031 24.59375 L 167.796875 24.59375 L 167.796875 40.667969 L 162.707031 40.667969 L 162.707031 22.027344 C 162.707031 21.675781 162.769531 21.34375 162.902344 21.039062 C 163.03125 20.730469 163.214844 20.464844 163.449219 20.234375 C 163.683594 20.007812 163.957031 19.828125 164.273438 19.699219 C 164.585938 19.566406 164.917969 19.5 165.269531 19.5 L 176.746094 19.5 C 177.382812 19.5 178.058594 19.574219 178.769531 19.71875 C 179.484375 19.859375 180.1875 20.09375 180.886719 20.414062 C 181.585938 20.730469 182.25 21.136719 182.882812 21.625 C 183.515625 22.117188 184.078125 22.710938 184.566406 23.40625 C 185.054688 24.105469 185.445312 24.914062 185.730469 25.828125 C 186.019531 26.738281 186.164062 27.769531 186.164062 28.917969 Z M 186.164062 40.667969 "
     id="path599" />
  <path
     fill-rule="nonzero"
     fill="rgb(39.99939%, 22.3526%, 65.097046%)"
     fill-opacity="1"
     d="M 213.398438 26.511719 C 213.398438 27.214844 213.273438 27.976562 213.027344 28.792969 C 212.777344 29.609375 212.378906 30.367188 211.824219 31.0625 C 211.265625 31.761719 210.542969 32.347656 209.648438 32.816406 C 208.753906 33.285156 207.667969 33.519531 206.390625 33.519531 L 197.207031 33.519531 L 197.207031 28.683594 L 206.390625 28.683594 C 207.082031 28.683594 207.617188 28.472656 207.996094 28.046875 C 208.371094 27.625 208.5625 27.097656 208.5625 26.472656 C 208.5625 25.808594 208.351562 25.285156 207.925781 24.90625 C 207.5 24.527344 206.988281 24.339844 206.390625 24.339844 L 197.207031 24.339844 C 196.515625 24.339844 195.980469 24.550781 195.601562 24.972656 C 195.222656 25.398438 195.03125 25.925781 195.03125 26.550781 L 195.03125 33.660156 C 195.03125 34.335938 195.246094 34.867188 195.667969 35.246094 C 196.09375 35.621094 196.617188 35.8125 197.246094 35.8125 L 206.390625 35.8125 L 206.390625 40.667969 L 197.207031 40.667969 C 196.5 40.667969 195.742188 40.542969 194.925781 40.296875 C 194.109375 40.046875 193.351562 39.648438 192.652344 39.089844 C 191.953125 38.535156 191.371094 37.8125 190.902344 36.917969 C 190.429688 36.023438 190.195312 34.9375 190.195312 33.660156 L 190.195312 26.511719 C 190.195312 25.808594 190.320312 25.046875 190.566406 24.230469 C 190.816406 23.414062 191.21875 22.65625 191.773438 21.960938 C 192.328125 21.261719 193.050781 20.675781 193.945312 20.207031 C 194.839844 19.738281 195.925781 19.5 197.207031 19.5 L 206.390625 19.5 C 207.09375 19.5 207.855469 19.625 208.667969 19.875 C 209.484375 20.121094 210.242188 20.523438 210.941406 21.078125 C 211.640625 21.632812 212.222656 22.355469 212.695312 23.25 C 213.164062 24.144531 213.398438 25.230469 213.398438 26.511719 Z M 213.398438 26.511719 "
     id="path601" />
  <path
     fill-rule="nonzero"
     fill="rgb(39.99939%, 22.3526%, 65.097046%)"
     fill-opacity="1"
     d="M 242.082031 19.5 C 241.507812 21.289062 240.835938 23.050781 240.066406 24.789062 C 239.296875 26.523438 238.414062 28.179688 237.414062 29.753906 C 236.414062 31.324219 235.300781 32.78125 234.066406 34.117188 C 232.832031 35.457031 231.46875 36.613281 229.972656 37.585938 C 228.480469 38.554688 226.851562 39.320312 225.097656 39.875 C 223.34375 40.429688 221.441406 40.707031 219.390625 40.707031 C 219.039062 40.707031 218.703125 40.640625 218.390625 40.511719 C 218.078125 40.378906 217.804688 40.203125 217.570312 39.972656 C 217.335938 39.746094 217.152344 39.476562 217.019531 39.171875 C 216.890625 38.863281 216.824219 38.535156 216.824219 38.179688 L 216.824219 19.5 L 221.914062 19.5 L 221.914062 35.421875 C 223.15625 35.421875 224.347656 35.152344 225.488281 34.617188 C 226.632812 34.082031 227.710938 33.375 228.730469 32.492188 C 229.746094 31.613281 230.691406 30.609375 231.558594 29.488281 C 232.425781 28.363281 233.199219 27.214844 233.878906 26.03125 C 234.558594 24.851562 235.136719 23.691406 235.613281 22.554688 C 236.089844 21.421875 236.445312 20.402344 236.679688 19.5 Z M 242.082031 19.5 "
     id="path603" />
  <path
     fill-rule="nonzero"
     fill="rgb(39.99939%, 22.3526%, 65.097046%)"
     fill-opacity="1"
     d="M 249.074219 15.15625 L 243.984375 15.15625 L 243.984375 10.554688 L 249.074219 10.554688 Z M 249.074219 40.667969 L 243.984375 40.667969 L 243.984375 19.5 L 249.074219 19.5 Z M 249.074219 40.667969 "
     id="path605" />
  <path
     fill-rule="nonzero"
     fill="rgb(39.99939%, 22.3526%, 65.097046%)"
     fill-opacity="1"
     d="M 276.722656 26.511719 C 276.722656 27.214844 276.597656 27.976562 276.347656 28.792969 C 276.101562 29.609375 275.699219 30.367188 275.144531 31.0625 C 274.589844 31.761719 273.867188 32.347656 272.972656 32.816406 C 272.078125 33.285156 270.992188 33.519531 269.710938 33.519531 L 260.527344 33.519531 L 260.527344 28.683594 L 269.710938 28.683594 C 270.402344 28.683594 270.9375 28.472656 271.316406 28.046875 C 271.695312 27.625 271.882812 27.097656 271.882812 26.472656 C 271.882812 25.808594 271.671875 25.285156 271.25 24.90625 C 270.824219 24.527344 270.3125 24.339844 269.710938 24.339844 L 260.527344 24.339844 C 259.835938 24.339844 259.300781 24.550781 258.921875 24.972656 C 258.542969 25.398438 258.355469 25.925781 258.355469 26.550781 L 258.355469 33.660156 C 258.355469 34.335938 258.566406 34.867188 258.992188 35.246094 C 259.414062 35.621094 259.941406 35.8125 260.566406 35.8125 L 269.710938 35.8125 L 269.710938 40.667969 L 260.527344 40.667969 C 259.824219 40.667969 259.0625 40.542969 258.246094 40.296875 C 257.429688 40.046875 256.675781 39.648438 255.976562 39.089844 C 255.277344 38.535156 254.691406 37.8125 254.222656 36.917969 C 253.753906 36.023438 253.519531 34.9375 253.519531 33.660156 L 253.519531 26.511719 C 253.519531 25.808594 253.640625 25.046875 253.890625 24.230469 C 254.136719 23.414062 254.539062 22.65625 255.09375 21.960938 C 255.648438 21.261719 256.375 20.675781 257.269531 20.207031 C 258.160156 19.738281 259.25 19.5 260.527344 19.5 L 269.710938 19.5 C 270.414062 19.5 271.175781 19.625 271.992188 19.875 C 272.808594 20.121094 273.566406 20.523438 274.261719 21.078125 C 274.960938 21.632812 275.546875 22.355469 276.015625 23.25 C 276.484375 24.144531 276.722656 25.230469 276.722656 26.511719 Z M 276.722656 26.511719 "
     id="path607" />
  <path
     fill-rule="nonzero"
     fill="rgb(39.99939%, 22.3526%, 65.097046%)"
     fill-opacity="1"
     d="M 315 19.5 C 314.191406 21.316406 313.316406 23.101562 312.375 24.855469 C 311.4375 26.613281 310.453125 28.273438 309.429688 29.839844 C 308.40625 31.40625 307.355469 32.851562 306.285156 34.175781 C 305.214844 35.503906 304.15625 36.644531 303.105469 37.605469 C 302.054688 38.5625 301.03125 39.3125 300.03125 39.855469 C 299.03125 40.398438 298.089844 40.667969 297.203125 40.667969 C 296.835938 40.667969 296.496094 40.601562 296.183594 40.472656 C 295.871094 40.339844 295.597656 40.164062 295.359375 39.933594 C 295.125 39.707031 294.945312 39.433594 294.8125 39.121094 C 294.683594 38.808594 294.617188 38.46875 294.617188 38.101562 L 294.617188 28.605469 L 284.515625 39.90625 C 284.253906 40.164062 283.96875 40.359375 283.660156 40.480469 C 283.355469 40.605469 283.039062 40.667969 282.710938 40.667969 C 282.359375 40.667969 282.03125 40.601562 281.722656 40.472656 C 281.417969 40.339844 281.144531 40.164062 280.910156 39.933594 C 280.675781 39.707031 280.488281 39.433594 280.351562 39.121094 C 280.214844 38.808594 280.148438 38.46875 280.148438 38.101562 L 280.148438 19.5 L 285.238281 19.5 L 285.238281 31.5625 L 295.378906 20.226562 C 295.746094 19.859375 296.179688 19.628906 296.683594 19.53125 C 297.183594 19.433594 297.679688 19.488281 298.160156 19.699219 C 298.644531 19.894531 299.027344 20.203125 299.304688 20.628906 C 299.585938 21.050781 299.726562 21.519531 299.726562 22.027344 L 299.726562 34.128906 C 300.824219 33.070312 301.816406 31.953125 302.703125 30.78125 C 303.589844 29.605469 304.417969 28.394531 305.179688 27.148438 C 305.945312 25.902344 306.660156 24.636719 307.335938 23.347656 C 308.007812 22.0625 308.664062 20.78125 309.300781 19.5 Z M 315 19.5 "
     id="path609" />
  <g
     clip-path="url(#clip-0)"
     id="g613">
    <path
       fill-rule="evenodd"
       fill="rgb(39.99939%, 22.3526%, 65.097046%)"
       fill-opacity="1"
       d="M 7.292969 44.542969 C 9.722656 45.480469 31.289062 53.585938 39.46875 50.605469 C 47.648438 47.628906 58.960938 27.558594 60.222656 25.277344 L 60.757812 24.316406 L 54.496094 7.109375 L 53.464844 6.714844 C 51.035156 5.78125 29.46875 -2.324219 21.289062 0.652344 C 13.109375 3.632812 1.796875 23.703125 0.535156 25.980469 L 0 26.941406 L 6.261719 44.152344 Z M 11.042969 40.785156 C 12.574219 38.46875 14.636719 35.507812 16.890625 32.574219 C 22.996094 33.808594 29.464844 34.535156 33.132812 33.199219 C 36.800781 31.863281 41.292969 27.148438 45.175781 22.28125 C 48.785156 23.078125 52.269531 24.019531 54.933594 24.8125 C 50.265625 32.863281 42.347656 44.417969 37.816406 46.066406 C 33.292969 47.714844 19.796875 43.953125 11.042969 40.785156 Z M 19.171875 29.710938 C 22.550781 25.613281 26.085938 22.050781 28.726562 21.089844 C 31.367188 20.128906 36.363281 20.585938 41.585938 21.550781 C 38.203125 25.648438 34.671875 29.210938 32.03125 30.171875 C 29.390625 31.132812 24.394531 30.675781 19.171875 29.710938 Z M 54.527344 21.332031 C 52.5625 20.761719 50.070312 20.085938 47.359375 19.449219 C 49.027344 17.222656 50.5 15.101562 51.640625 13.402344 Z M 6.230469 29.929688 C 8.195312 30.5 10.6875 31.175781 13.398438 31.8125 C 11.730469 34.039062 10.257812 36.160156 9.117188 37.859375 Z M 27.351562 26.734375 C 27.332031 26.683594 27.316406 26.632812 27.300781 26.582031 C 27.285156 26.53125 27.269531 26.480469 27.257812 26.429688 C 27.246094 26.378906 27.234375 26.328125 27.222656 26.277344 C 27.210938 26.226562 27.203125 26.171875 27.195312 26.121094 C 27.1875 26.070312 27.179688 26.015625 27.175781 25.964844 C 27.167969 25.910156 27.164062 25.859375 27.160156 25.804688 C 27.160156 25.753906 27.15625 25.699219 27.15625 25.648438 C 27.15625 25.59375 27.15625 25.542969 27.160156 25.488281 C 27.164062 25.4375 27.164062 25.386719 27.171875 25.332031 C 27.175781 25.28125 27.183594 25.226562 27.1875 25.175781 C 27.195312 25.125 27.207031 25.070312 27.214844 25.019531 C 27.226562 24.96875 27.238281 24.917969 27.25 24.863281 C 27.261719 24.8125 27.277344 24.761719 27.289062 24.710938 C 27.304688 24.660156 27.320312 24.613281 27.339844 24.5625 C 27.355469 24.511719 27.375 24.460938 27.394531 24.414062 C 27.414062 24.363281 27.4375 24.316406 27.457031 24.269531 C 27.480469 24.222656 27.503906 24.175781 27.527344 24.128906 C 27.554688 24.082031 27.578125 24.035156 27.605469 23.988281 C 27.632812 23.945312 27.660156 23.898438 27.691406 23.855469 C 27.71875 23.8125 27.75 23.769531 27.78125 23.726562 C 27.8125 23.683594 27.84375 23.640625 27.878906 23.601562 C 27.910156 23.558594 27.945312 23.519531 27.980469 23.480469 C 28.015625 23.441406 28.050781 23.402344 28.089844 23.363281 C 28.125 23.328125 28.164062 23.289062 28.203125 23.253906 C 28.242188 23.21875 28.28125 23.183594 28.320312 23.152344 C 28.363281 23.117188 28.402344 23.085938 28.445312 23.054688 C 28.488281 23.023438 28.53125 22.992188 28.574219 22.960938 C 28.617188 22.933594 28.664062 22.902344 28.707031 22.875 C 28.753906 22.847656 28.796875 22.824219 28.84375 22.796875 C 28.890625 22.773438 28.9375 22.75 28.984375 22.726562 C 29.03125 22.703125 29.082031 22.679688 29.128906 22.660156 C 29.179688 22.640625 29.226562 22.621094 29.277344 22.601562 C 29.328125 22.585938 29.375 22.566406 29.425781 22.550781 C 29.476562 22.535156 29.527344 22.523438 29.578125 22.507812 C 29.628906 22.496094 29.679688 22.484375 29.734375 22.472656 C 29.785156 22.464844 29.835938 22.453125 29.890625 22.445312 C 29.941406 22.4375 29.992188 22.429688 30.046875 22.425781 C 30.097656 22.421875 30.152344 22.417969 30.203125 22.414062 C 30.257812 22.410156 30.308594 22.410156 30.363281 22.410156 C 30.414062 22.410156 30.46875 22.410156 30.519531 22.410156 C 30.570312 22.414062 30.625 22.417969 30.675781 22.421875 C 30.730469 22.425781 30.78125 22.433594 30.835938 22.441406 C 30.886719 22.449219 30.9375 22.457031 30.992188 22.46875 C 31.042969 22.476562 31.09375 22.488281 31.144531 22.5 C 31.195312 22.511719 31.246094 22.527344 31.296875 22.542969 C 31.347656 22.558594 31.398438 22.574219 31.449219 22.589844 C 31.496094 22.609375 31.546875 22.628906 31.597656 22.648438 C 31.644531 22.667969 31.691406 22.6875 31.742188 22.710938 C 31.789062 22.734375 31.835938 22.757812 31.882812 22.78125 C 31.929688 22.804688 31.976562 22.832031 32.019531 22.859375 C 32.066406 22.886719 32.109375 22.914062 32.15625 22.941406 C 32.199219 22.972656 32.242188 23 32.285156 23.03125 C 32.328125 23.0625 32.367188 23.09375 32.410156 23.128906 C 32.449219 23.164062 32.492188 23.195312 32.53125 23.230469 C 32.570312 23.265625 32.605469 23.304688 32.644531 23.339844 C 32.683594 23.378906 32.71875 23.414062 32.753906 23.453125 C 32.789062 23.492188 32.824219 23.53125 32.859375 23.574219 C 32.890625 23.613281 32.925781 23.65625 32.957031 23.695312 C 32.988281 23.738281 33.019531 23.78125 33.046875 23.824219 C 33.078125 23.871094 33.105469 23.914062 33.132812 23.960938 C 33.160156 24.003906 33.1875 24.050781 33.210938 24.097656 C 33.238281 24.144531 33.261719 24.191406 33.285156 24.238281 C 33.308594 24.285156 33.328125 24.332031 33.347656 24.382812 C 33.371094 24.429688 33.390625 24.480469 33.40625 24.527344 C 33.425781 24.578125 33.441406 24.628906 33.457031 24.679688 C 33.472656 24.730469 33.488281 24.78125 33.5 24.832031 C 33.511719 24.882812 33.523438 24.933594 33.535156 24.984375 C 33.546875 25.035156 33.554688 25.089844 33.5625 25.140625 C 33.570312 25.191406 33.578125 25.246094 33.582031 25.296875 C 33.589844 25.351562 33.59375 25.402344 33.597656 25.453125 C 33.597656 25.507812 33.601562 25.558594 33.601562 25.613281 C 33.601562 25.664062 33.601562 25.71875 33.597656 25.769531 C 33.59375 25.824219 33.59375 25.875 33.585938 25.929688 C 33.582031 25.980469 33.574219 26.035156 33.570312 26.085938 C 33.5625 26.136719 33.550781 26.191406 33.542969 26.242188 C 33.53125 26.292969 33.519531 26.34375 33.507812 26.394531 C 33.496094 26.449219 33.480469 26.5 33.46875 26.550781 C 33.453125 26.601562 33.4375 26.648438 33.417969 26.699219 C 33.402344 26.75 33.382812 26.796875 33.363281 26.847656 C 33.34375 26.894531 33.320312 26.945312 33.300781 26.992188 C 33.277344 27.039062 33.253906 27.085938 33.230469 27.132812 C 33.203125 27.179688 33.179688 27.226562 33.152344 27.273438 C 33.125 27.316406 33.097656 27.363281 33.066406 27.40625 C 33.039062 27.449219 33.007812 27.492188 32.976562 27.535156 C 32.945312 27.578125 32.914062 27.621094 32.878906 27.660156 C 32.847656 27.703125 32.8125 27.742188 32.777344 27.78125 C 32.742188 27.820312 32.707031 27.859375 32.667969 27.898438 C 32.632812 27.933594 32.59375 27.96875 32.554688 28.007812 C 32.515625 28.042969 32.476562 28.078125 32.4375 28.109375 C 32.394531 28.144531 32.355469 28.175781 32.3125 28.207031 C 32.269531 28.238281 32.226562 28.269531 32.183594 28.300781 C 32.140625 28.328125 32.09375 28.359375 32.050781 28.386719 C 32.003906 28.414062 31.960938 28.4375 31.914062 28.464844 C 31.867188 28.488281 31.820312 28.511719 31.773438 28.535156 C 31.726562 28.558594 31.675781 28.582031 31.628906 28.601562 C 31.578125 28.621094 31.53125 28.640625 31.480469 28.660156 C 31.429688 28.675781 31.382812 28.691406 31.332031 28.707031 C 31.28125 28.722656 31.230469 28.738281 31.179688 28.75 C 31.128906 28.765625 31.078125 28.777344 31.023438 28.789062 C 30.972656 28.796875 30.921875 28.808594 30.871094 28.816406 C 30.816406 28.824219 30.765625 28.828125 30.710938 28.835938 C 30.660156 28.839844 30.605469 28.84375 30.554688 28.847656 C 30.503906 28.851562 30.449219 28.851562 30.398438 28.851562 C 30.34375 28.851562 30.292969 28.851562 30.238281 28.851562 C 30.1875 28.847656 30.132812 28.84375 30.082031 28.839844 C 30.027344 28.832031 29.976562 28.828125 29.921875 28.820312 C 29.871094 28.8125 29.820312 28.804688 29.769531 28.792969 C 29.714844 28.785156 29.664062 28.773438 29.613281 28.761719 C 29.5625 28.746094 29.511719 28.734375 29.460938 28.71875 C 29.410156 28.703125 29.359375 28.6875 29.308594 28.671875 C 29.261719 28.652344 29.210938 28.632812 29.164062 28.613281 C 29.113281 28.59375 29.066406 28.574219 29.015625 28.550781 C 28.96875 28.527344 28.921875 28.503906 28.875 28.480469 C 28.828125 28.457031 28.78125 28.429688 28.738281 28.402344 C 28.691406 28.375 28.648438 28.347656 28.605469 28.320312 C 28.558594 28.289062 28.515625 28.261719 28.472656 28.230469 C 28.429688 28.199219 28.390625 28.164062 28.347656 28.132812 C 28.308594 28.097656 28.265625 28.066406 28.226562 28.03125 C 28.1875 27.996094 28.152344 27.957031 28.113281 27.921875 C 28.074219 27.882812 28.039062 27.847656 28.003906 27.808594 C 27.96875 27.769531 27.933594 27.730469 27.898438 27.6875 C 27.867188 27.648438 27.832031 27.605469 27.800781 27.5625 C 27.769531 27.523438 27.738281 27.480469 27.710938 27.433594 C 27.679688 27.390625 27.652344 27.347656 27.625 27.300781 C 27.597656 27.257812 27.570312 27.210938 27.546875 27.164062 C 27.519531 27.117188 27.496094 27.070312 27.472656 27.023438 C 27.449219 26.976562 27.429688 26.929688 27.410156 26.878906 C 27.386719 26.832031 27.371094 26.78125 27.351562 26.734375 Z M 49.714844 10.476562 C 48.183594 12.792969 46.117188 15.753906 43.867188 18.683594 C 37.761719 17.453125 31.289062 16.726562 27.625 18.0625 C 23.957031 19.394531 19.464844 24.113281 15.582031 28.980469 C 11.972656 28.179688 8.488281 27.238281 5.824219 26.449219 C 10.492188 18.398438 18.410156 6.84375 22.941406 5.195312 C 27.464844 3.546875 40.960938 7.308594 49.714844 10.476562 Z M 49.714844 10.476562 "
       id="path611" />
  </g>
</svg>
