<?xml version="1.0" standalone="no"?>
<!DOCTYPE svg PUBLIC "-//W3C//DTD SVG 20010904//EN"
 "http://www.w3.org/TR/2001/REC-SVG-20010904/DTD/svg10.dtd">
<svg version="1.0" xmlns="http://www.w3.org/2000/svg"
 width="512.000000pt" height="512.000000pt" viewBox="0 0 512.000000 512.000000"
 preserveAspectRatio="xMidYMid meet">
<metadata>
Created by potrace 1.14, written by Peter Selinger 2001-2017
</metadata>
<g transform="translate(0.000000,512.000000) scale(0.100000,-0.100000)"
fill="#000000" stroke="none">
<path d="M1135 5109 c-577 -74 -1030 -517 -1119 -1096 -21 -136 -21 -2779 0
-2908 96 -589 546 -1025 1129 -1094 95 -11 2822 -9 2875 2 251 54 390 112 560
233 241 171 420 431 495 721 14 52 25 103 25 112 0 10 -36 37 -96 71 -53 30
-108 62 -123 70 -171 99 -220 127 -246 143 -16 10 -46 25 -66 34 l-35 17 67
135 c106 213 177 441 214 686 32 206 24 580 -15 742 -5 22 -13 58 -16 80 -8
53 -70 253 -105 343 -17 41 -56 127 -88 190 l-57 114 150 87 c83 47 196 112
251 144 55 32 113 65 128 73 16 8 31 20 33 27 8 19 -31 172 -66 259 -42 107
-63 147 -128 246 -185 280 -470 475 -807 551 l-100 23 -1395 2 c-776 1 -1426
-2 -1465 -7z"/>
</g>
</svg>
