<?xml version="1.0" encoding="UTF-8" standalone="no"?>
<!-- Created with Inkscape (http://www.inkscape.org/) -->

<svg
   width="4096"
   height="2160"
   viewBox="0 0 1083.7333 571.50004"
   version="1.1"
   id="svg5"
   xml:space="preserve"
   inkscape:version="1.2.2 (1:1.2.2+202212051552+b0a8486541)"
   sodipodi:docname="SceneView.svg"
   xmlns:inkscape="http://www.inkscape.org/namespaces/inkscape"
   xmlns:sodipodi="http://sodipodi.sourceforge.net/DTD/sodipodi-0.dtd"
   xmlns="http://www.w3.org/2000/svg"
   xmlns:svg="http://www.w3.org/2000/svg"><sodipodi:namedview
     id="namedview7"
     pagecolor="#6639a6"
     bordercolor="#000000"
     borderopacity="0.25"
     inkscape:showpageshadow="2"
     inkscape:pageopacity="1"
     inkscape:pagecheckerboard="0"
     inkscape:deskcolor="#d1d1d1"
     inkscape:document-units="mm"
     showgrid="false"
     inkscape:zoom="0.34398147"
     inkscape:cx="2104.7645"
     inkscape:cy="1082.9072"
     inkscape:window-width="1920"
     inkscape:window-height="946"
     inkscape:window-x="0"
     inkscape:window-y="0"
     inkscape:window-maximized="1"
     inkscape:current-layer="svg5"><inkscape:page
       x="0"
       y="0"
       width="1083.7333"
       height="571.50006"
       id="page1257"
       inkscape:export-filename="SceneView.png"
       inkscape:export-xdpi="96"
       inkscape:export-ydpi="96" /></sodipodi:namedview><defs
     id="defs2" /><g
     id="g1235"
     transform="matrix(0.08601058,0,0,-0.08601058,778.93333,78.593135)"><path
       d="m 1082.93,195.941 c 0,-10.043 -1.29,-19.062 -3.83,-27.113 -2.54,-8.008 -5.9,-15.117 -10.08,-21.25 -4.18,-6.129 -9.06,-11.367 -14.68,-15.668 -5.63,-4.289 -11.41,-7.808 -17.43,-10.539 -6.01,-2.781 -12.11,-4.769 -18.32,-6.101 -6.21,-1.29 -12.03,-1.95 -17.5,-1.95 H 804.691 v 50.899 h 196.399 c 9.77,0 17.39,2.89 22.82,8.633 5.39,5.738 8.12,13.437 8.12,23.089 0,4.719 -0.74,9.02 -2.19,12.93 -1.4,3.899 -3.47,7.301 -6.13,10.188 -2.69,2.851 -5.98,5.082 -9.8,6.64 -3.87,1.571 -8.13,2.352 -12.82,2.352 H 883.98 c -8.199,0 -17.101,1.48 -26.64,4.41 -9.531,2.93 -18.36,7.66 -26.52,14.219 -8.16,6.519 -14.922,15.039 -20.351,25.621 -5.43,10.59 -8.129,23.519 -8.129,38.789 0,15.281 2.699,28.172 8.129,38.68 5.429,10.5 12.191,19.019 20.351,25.621 8.16,6.597 16.989,11.371 26.52,14.3 9.539,2.93 18.441,4.411 26.64,4.411 h 173.29 V 343.199 H 883.98 c -9.64,0 -17.179,-2.929 -22.609,-8.82 -5.43,-5.859 -8.133,-13.641 -8.133,-23.289 0,-9.801 2.703,-17.539 8.133,-23.199 5.43,-5.7 12.969,-8.512 22.609,-8.512 h 117.5 c 5.47,-0.16 11.29,-0.899 17.43,-2.27 6.13,-1.371 12.22,-3.48 18.28,-6.371 6.09,-2.847 11.87,-6.476 17.34,-10.859 5.47,-4.367 10.35,-9.649 14.57,-15.777 4.26,-6.133 7.62,-13.161 10.12,-21.133 2.46,-7.969 3.71,-16.949 3.71,-27.028 z"
       style="fill:#ffffff;fill-opacity:1;fill-rule:nonzero;stroke:none"
       id="path1237" /><path
       d="m 1324.53,113.32 h -138.05 c -7.03,0 -14.72,1.25 -23.08,3.711 -8.36,2.5 -16.1,6.559 -23.2,12.27 -7.11,5.66 -13.05,13.039 -17.82,22.109 -4.76,9.059 -7.15,20.192 -7.15,33.391 v 68.91 c 0,4.84 0.55,9.918 1.65,15.269 1.13,5.36 2.85,10.668 5.19,15.942 2.34,5.308 5.39,10.348 9.1,15.199 3.75,4.84 8.24,9.059 13.52,12.731 5.31,3.628 11.4,6.597 18.32,8.789 6.91,2.23 14.76,3.359 23.47,3.359 h 138.05 v -50.941 h -138.05 c -6.64,0 -11.68,-1.68 -15.15,-5.079 -3.48,-3.39 -5.2,-8.628 -5.2,-15.66 v -68.519 c 0,-6.68 1.76,-11.75 5.28,-15.27 3.55,-3.551 8.71,-5.312 15.47,-5.312 h 137.65 z"
       style="fill:#ffffff;fill-opacity:1;fill-rule:nonzero;stroke:none"
       id="path1239" /><path
       d="m 1592.77,254.879 c 0,-7.027 -1.21,-14.649 -3.71,-22.809 -2.46,-8.16 -6.48,-15.742 -12.03,-22.691 -5.55,-7 -12.81,-12.859 -21.72,-17.539 -8.94,-4.692 -19.84,-7.039 -32.61,-7.039 h -91.84 v 48.359 h 91.84 c 6.91,0 12.26,2.11 16.05,6.371 3.79,4.219 5.66,9.489 5.66,15.739 0,6.64 -2.11,11.878 -6.36,15.671 -4.22,3.789 -9.34,5.661 -15.35,5.661 h -91.84 c -6.91,0 -12.27,-2.114 -16.06,-6.332 -3.78,-4.25 -5.66,-9.532 -5.66,-15.782 v -71.09 c 0,-6.757 2.11,-12.07 6.37,-15.859 4.22,-3.75 9.49,-5.66 15.74,-5.66 h 91.45 V 113.32 h -91.84 c -7.03,0 -14.65,1.25 -22.81,3.711 -8.17,2.5 -15.75,6.489 -22.7,12.071 -6.99,5.546 -12.85,12.777 -17.54,21.718 -4.69,8.95 -7.03,19.801 -7.03,32.578 v 71.481 c 0,7.031 1.21,14.652 3.71,22.82 2.46,8.16 6.49,15.742 12.03,22.692 5.55,6.988 12.82,12.847 21.72,17.539 8.95,4.691 19.85,7.07 32.62,7.07 h 91.84 c 7.03,0 14.64,-1.25 22.81,-3.75 8.16,-2.461 15.74,-6.48 22.69,-12.031 7,-5.547 12.85,-12.77 17.54,-21.719 4.69,-8.949 7.03,-19.801 7.03,-32.621 z"
       style="fill:#ffffff;fill-opacity:1;fill-rule:nonzero;stroke:none"
       id="path1241" /><path
       d="m 1861.64,113.32 h -50.94 v 117.5 c 0,6.641 -1.13,12.621 -3.4,17.891 -2.3,5.269 -5.39,9.84 -9.29,13.629 -3.95,3.75 -8.56,6.68 -13.83,8.711 -5.27,2 -10.98,3.008 -17.11,3.008 h -89.1 V 113.32 h -50.9 v 186.41 c 0,3.508 0.63,6.829 1.95,9.879 1.29,3.09 3.13,5.743 5.47,8.051 2.35,2.262 5.08,4.059 8.24,5.352 3.13,1.328 6.45,1.988 9.97,1.988 h 114.76 c 6.37,0 13.13,-0.738 20.24,-2.191 7.14,-1.399 14.18,-3.75 21.17,-6.95 6.99,-3.16 13.63,-7.23 19.96,-12.109 6.33,-4.922 11.95,-10.859 16.83,-17.809 4.89,-6.992 8.79,-15.082 11.64,-24.222 2.9,-9.098 4.34,-19.418 4.34,-30.899 z"
       style="fill:#ffffff;fill-opacity:1;fill-rule:nonzero;stroke:none"
       id="path1243" /><path
       d="m 2133.98,254.879 c 0,-7.027 -1.25,-14.649 -3.71,-22.809 -2.5,-8.16 -6.48,-15.742 -12.03,-22.691 -5.58,-7 -12.81,-12.859 -21.76,-17.539 -8.94,-4.692 -19.8,-7.039 -32.57,-7.039 h -91.84 v 48.359 h 91.84 c 6.91,0 12.26,2.11 16.05,6.371 3.75,4.219 5.66,9.489 5.66,15.739 0,6.64 -2.1,11.878 -6.36,15.671 -4.26,3.789 -9.38,5.661 -15.35,5.661 h -91.84 c -6.91,0 -12.27,-2.114 -16.05,-6.332 -3.79,-4.25 -5.71,-9.532 -5.71,-15.782 v -71.09 c 0,-6.757 2.15,-12.07 6.37,-15.859 4.26,-3.75 9.49,-5.66 15.78,-5.66 h 91.45 V 113.32 h -91.84 c -7.07,0 -14.65,1.25 -22.81,3.711 -8.17,2.5 -15.74,6.489 -22.74,12.071 -6.99,5.546 -12.81,12.777 -17.5,21.718 -4.72,8.95 -7.07,19.801 -7.07,32.578 v 71.481 c 0,7.031 1.25,14.652 3.71,22.82 2.5,8.16 6.53,15.742 12.07,22.692 5.55,6.988 12.78,12.847 21.72,17.539 8.95,4.691 19.81,7.07 32.62,7.07 h 91.84 c 7.03,0 14.64,-1.25 22.77,-3.75 8.16,-2.461 15.74,-6.48 22.73,-12.031 7,-5.547 12.82,-12.77 17.54,-21.719 4.69,-8.949 7.03,-19.801 7.03,-32.621 z"
       style="fill:#ffffff;fill-opacity:1;fill-rule:nonzero;stroke:none"
       id="path1245" /><path
       d="m 2420.82,325 c -5.74,-17.891 -12.46,-35.512 -20.16,-52.891 -7.69,-17.339 -16.52,-33.91 -26.52,-49.648 -10,-15.699 -21.13,-30.27 -33.48,-43.633 -12.34,-13.398 -25.97,-24.957 -40.93,-34.687 -14.93,-9.692 -31.21,-17.34 -48.75,-22.891 -17.54,-5.551 -36.57,-8.32 -57.07,-8.32 -3.52,0 -6.88,0.66 -10,1.949 -3.13,1.332 -5.86,3.09 -8.21,5.391 -2.34,2.269 -4.18,4.96 -5.5,8.011 -1.29,3.09 -1.96,6.367 -1.96,9.918 V 325 h 50.9 V 165.781 c 12.42,0 24.34,2.699 35.74,8.047 11.45,5.352 22.23,12.422 32.42,21.25 10.16,8.793 19.61,18.832 28.29,30.043 8.67,11.25 16.4,22.731 23.2,34.57 6.8,11.789 12.58,23.399 17.34,34.758 4.77,11.332 8.32,21.531 10.67,30.551 z"
       style="fill:#ffffff;fill-opacity:1;fill-rule:nonzero;stroke:none"
       id="path1247" /><path
       d="m 2490.74,368.441 h -50.8984 v 46.0078 h 50.8984 z m 0,-255.121 h -50.8984 V 325 h 50.8984 z"
       style="fill:#ffffff;fill-opacity:1;fill-rule:nonzero;stroke:none"
       id="path1249" /><path
       d="m 2767.23,254.879 c 0,-7.027 -1.25,-14.649 -3.75,-22.809 -2.46,-8.16 -6.49,-15.742 -12.03,-22.691 -5.55,-7 -12.78,-12.859 -21.72,-17.539 -8.95,-4.692 -19.81,-7.039 -32.62,-7.039 h -91.84 v 48.359 h 91.84 c 6.91,0 12.27,2.11 16.05,6.371 3.79,4.219 5.67,9.489 5.67,15.739 0,6.64 -2.11,11.878 -6.33,15.671 -4.26,3.789 -9.38,5.661 -15.39,5.661 h -91.84 c -6.91,0 -12.26,-2.114 -16.05,-6.332 -3.79,-4.25 -5.67,-9.532 -5.67,-15.782 v -71.09 c 0,-6.757 2.11,-12.07 6.37,-15.859 4.22,-3.75 9.49,-5.66 15.74,-5.66 h 91.45 V 113.32 h -91.84 c -7.03,0 -14.65,1.25 -22.81,3.711 -8.16,2.5 -15.7,6.489 -22.69,12.071 -7,5.546 -12.86,12.777 -17.54,21.718 -4.69,8.95 -7.03,19.801 -7.03,32.578 v 71.481 c 0,7.031 1.21,14.652 3.71,22.82 2.46,8.16 6.48,15.742 12.03,22.692 5.54,6.988 12.81,12.847 21.76,17.539 8.9,4.691 19.8,7.07 32.57,7.07 h 91.84 c 7.03,0 14.65,-1.25 22.81,-3.75 8.17,-2.461 15.74,-6.48 22.7,-12.031 6.99,-5.547 12.85,-12.77 17.54,-21.719 4.68,-8.949 7.07,-19.801 7.07,-32.621 z"
       style="fill:#ffffff;fill-opacity:1;fill-rule:nonzero;stroke:none"
       id="path1251" /><path
       d="m 3150,325 c -8.09,-18.16 -16.84,-36.02 -26.25,-53.551 -9.37,-17.578 -19.22,-34.179 -29.45,-49.847 -10.24,-15.661 -20.75,-30.122 -31.45,-43.364 -10.7,-13.277 -21.29,-24.687 -31.8,-34.289 -10.5,-9.57 -20.74,-17.07 -30.74,-22.5 -10,-5.429 -19.41,-8.129 -28.28,-8.129 -3.67,0 -7.07,0.66 -10.19,1.95 -3.13,1.332 -5.86,3.089 -8.25,5.39 -2.34,2.27 -4.14,5 -5.47,8.129 -1.28,3.121 -1.95,6.52 -1.95,10.191 v 94.969 L 2845.16,120.941 c -2.62,-2.582 -5.47,-4.531 -8.56,-5.742 -3.05,-1.25 -6.21,-1.879 -9.49,-1.879 -3.52,0 -6.8,0.66 -9.88,1.95 -3.05,1.332 -5.78,3.089 -8.13,5.39 -2.34,2.27 -4.22,5 -5.58,8.129 -1.37,3.121 -2.04,6.52 -2.04,10.191 V 325 h 50.9 V 204.379 l 101.41,113.351 c 3.67,3.68 8.01,5.981 13.05,6.961 5,0.969 9.96,0.43 14.76,-1.679 4.85,-1.961 8.67,-5.043 11.45,-9.301 2.81,-4.223 4.22,-8.91 4.22,-13.981 V 178.711 c 10.97,10.59 20.89,21.758 29.76,33.48 8.87,11.758 17.15,23.86 24.77,36.329 7.65,12.46 14.8,25.109 21.56,38 6.72,12.859 13.28,25.671 19.65,38.48 z"
       style="fill:#ffffff;fill-opacity:1;fill-rule:nonzero;stroke:none"
       id="path1253" /><path
       d="M 72.9297,74.5703 C 97.2305,65.1992 312.891,-15.8594 394.691,13.9492 476.48,43.7109 589.609,244.41 602.23,267.23 l 5.348,9.61 -62.617,172.07 -10.313,3.942 C 510.352,462.191 294.691,543.238 212.891,513.48 131.09,483.672 17.9688,282.969 5.35156,260.199 L 0,250.59 62.6211,78.4805 Z M 110.43,112.148 c 15.308,23.161 35.941,52.774 58.48,82.114 61.051,-12.352 125.738,-19.614 162.418,-6.25 36.684,13.359 81.602,60.508 120.434,109.179 36.09,-7.972 70.937,-17.39 97.578,-25.312 C 502.66,191.371 423.48,75.8203 378.16,59.3398 332.93,42.8516 197.969,80.4688 110.43,112.148 Z m 81.289,110.743 c 33.793,40.98 69.14,76.597 95.551,86.211 26.402,9.609 76.359,5.039 128.589,-4.614 -33.828,-40.968 -69.14,-76.597 -95.55,-86.207 -26.399,-9.609 -76.36,-5.043 -128.59,4.61 z M 545.27,306.68 c -19.649,5.699 -44.571,12.461 -71.68,18.832 16.68,22.258 31.41,43.468 42.82,60.468 z M 62.3008,220.699 C 81.9492,215 106.879,208.238 133.98,201.879 117.301,179.609 102.578,158.398 91.1719,141.41 Z M 273.52,252.66 c -0.2,0.5 -0.36,1.012 -0.508,1.52 -0.16,0.511 -0.313,1.019 -0.434,1.519 -0.117,0.512 -0.238,1.02 -0.348,1.531 -0.121,0.5 -0.199,1.051 -0.281,1.559 -0.07,0.512 -0.148,1.051 -0.187,1.563 -0.082,0.546 -0.121,1.058 -0.16,1.597 0,0.512 -0.043,1.063 -0.043,1.571 0,0.539 0,1.05 0.043,1.601 0.039,0.5 0.039,1.008 0.117,1.559 0.043,0.511 0.121,1.05 0.16,1.558 0.07,0.512 0.191,1.063 0.269,1.563 0.122,0.508 0.231,1.019 0.352,1.57 0.121,0.508 0.27,1.008 0.391,1.52 0.16,0.507 0.308,0.98 0.507,1.488 0.153,0.5 0.352,1.012 0.551,1.48 0.192,0.512 0.43,0.981 0.621,1.442 0.231,0.469 0.469,0.937 0.7,1.41 0.281,0.469 0.511,0.937 0.781,1.41 0.277,0.43 0.551,0.899 0.859,1.328 0.281,0.43 0.59,0.852 0.899,1.281 0.312,0.43 0.632,0.86 0.98,1.25 0.313,0.43 0.66,0.821 1.012,1.219 0.359,0.391 0.711,0.781 1.097,1.172 0.352,0.348 0.743,0.738 1.133,1.09 0.391,0.348 0.778,0.699 1.168,1.019 0.43,0.348 0.821,0.661 1.25,0.969 0.43,0.321 0.86,0.629 1.289,0.942 0.434,0.269 0.903,0.589 1.332,0.859 0.469,0.27 0.899,0.512 1.371,0.781 0.469,0.239 0.938,0.469 1.399,0.699 0.469,0.239 0.98,0.469 1.449,0.668 0.512,0.192 0.981,0.391 1.481,0.582 0.511,0.161 0.98,0.36 1.492,0.508 0.508,0.16 1.008,0.282 1.519,0.434 0.508,0.117 1.02,0.238 1.559,0.348 0.512,0.082 1.019,0.199 1.57,0.281 0.5,0.07 1.012,0.148 1.559,0.187 0.511,0.043 1.051,0.082 1.562,0.121 0.547,0.039 1.059,0.039 1.598,0.039 0.512,0 1.062,0 1.57,0 0.5,-0.039 1.051,-0.078 1.563,-0.117 0.539,-0.043 1.047,-0.121 1.597,-0.191 0.512,-0.078 1.02,-0.16 1.563,-0.281 0.508,-0.079 1.019,-0.188 1.527,-0.309 0.5,-0.121 1.012,-0.27 1.52,-0.43 0.511,-0.16 1.011,-0.308 1.519,-0.468 0.473,-0.192 0.981,-0.391 1.492,-0.582 0.469,-0.2 0.93,-0.399 1.442,-0.629 0.469,-0.231 0.937,-0.469 1.406,-0.7 0.473,-0.242 0.942,-0.511 1.371,-0.781 0.461,-0.281 0.891,-0.551 1.36,-0.82 0.429,-0.32 0.863,-0.59 1.293,-0.899 0.429,-0.312 0.82,-0.632 1.25,-0.98 0.386,-0.352 0.82,-0.66 1.207,-1.012 0.39,-0.359 0.742,-0.75 1.14,-1.097 0.391,-0.391 0.742,-0.743 1.09,-1.133 0.352,-0.391 0.699,-0.778 1.051,-1.207 0.32,-0.391 0.672,-0.821 0.98,-1.211 0.309,-0.43 0.629,-0.86 0.899,-1.289 0.312,-0.473 0.582,-0.903 0.859,-1.371 0.274,-0.43 0.551,-0.903 0.781,-1.371 0.27,-0.469 0.512,-0.93 0.743,-1.399 0.238,-0.473 0.429,-0.941 0.628,-1.449 0.231,-0.473 0.43,-0.973 0.579,-1.442 0.203,-0.511 0.351,-1.019 0.511,-1.531 0.16,-0.5 0.309,-1.008 0.43,-1.519 0.121,-0.508 0.23,-1.02 0.352,-1.52 0.117,-0.512 0.199,-1.058 0.269,-1.57 0.078,-0.5 0.16,-1.051 0.199,-1.559 0.078,-0.551 0.121,-1.051 0.16,-1.562 0,-0.547 0.04,-1.059 0.04,-1.598 0,-0.512 0,-1.062 -0.04,-1.57 -0.039,-0.539 -0.039,-1.051 -0.121,-1.602 -0.039,-0.5 -0.121,-1.051 -0.16,-1.558 -0.078,-0.512 -0.187,-1.051 -0.269,-1.563 -0.121,-0.508 -0.231,-1.019 -0.352,-1.527 -0.117,-0.539 -0.277,-1.051 -0.387,-1.563 -0.16,-0.508 -0.312,-0.968 -0.511,-1.476 -0.16,-0.512 -0.352,-0.981 -0.551,-1.492 -0.188,-0.469 -0.43,-0.969 -0.617,-1.442 -0.242,-0.469 -0.473,-0.937 -0.711,-1.406 -0.27,-0.473 -0.5,-0.942 -0.781,-1.402 -0.27,-0.43 -0.54,-0.899 -0.86,-1.329 -0.269,-0.429 -0.582,-0.863 -0.89,-1.293 -0.321,-0.429 -0.629,-0.859 -0.981,-1.25 -0.309,-0.429 -0.668,-0.82 -1.019,-1.207 -0.348,-0.39 -0.7,-0.781 -1.09,-1.171 -0.352,-0.36 -0.739,-0.711 -1.129,-1.098 -0.391,-0.352 -0.781,-0.703 -1.172,-1.012 -0.43,-0.359 -0.828,-0.672 -1.258,-0.98 -0.422,-0.309 -0.851,-0.629 -1.281,-0.942 -0.43,-0.269 -0.899,-0.578 -1.328,-0.859 -0.473,-0.27 -0.903,-0.508 -1.371,-0.777 -0.469,-0.231 -0.942,-0.473 -1.411,-0.704 -0.46,-0.238 -0.968,-0.468 -1.441,-0.668 -0.508,-0.191 -0.98,-0.39 -1.488,-0.582 -0.5,-0.16 -0.973,-0.308 -1.481,-0.468 -0.511,-0.16 -1.019,-0.309 -1.519,-0.43 -0.512,-0.16 -1.02,-0.27 -1.571,-0.391 -0.5,-0.078 -1.011,-0.199 -1.519,-0.269 -0.551,-0.078 -1.051,-0.121 -1.602,-0.199 -0.507,-0.039 -1.058,-0.082 -1.558,-0.121 -0.512,-0.04 -1.063,-0.04 -1.571,-0.04 -0.539,0 -1.05,0 -1.601,0 -0.5,0.04 -1.051,0.079 -1.559,0.122 -0.55,0.078 -1.05,0.117 -1.601,0.199 -0.508,0.078 -1.02,0.148 -1.52,0.269 -0.551,0.078 -1.058,0.2 -1.57,0.309 -0.508,0.16 -1.008,0.281 -1.52,0.43 -0.507,0.16 -1.019,0.312 -1.519,0.472 -0.469,0.199 -0.981,0.391 -1.449,0.59 -0.512,0.188 -0.981,0.391 -1.481,0.617 -0.469,0.242 -0.941,0.473 -1.41,0.711 -0.469,0.231 -0.941,0.5 -1.371,0.781 -0.469,0.27 -0.899,0.54 -1.328,0.821 -0.461,0.308 -0.891,0.578 -1.321,0.898 -0.429,0.313 -0.82,0.66 -1.25,0.973 -0.39,0.348 -0.82,0.668 -1.21,1.019 -0.391,0.348 -0.75,0.739 -1.141,1.09 -0.391,0.391 -0.738,0.739 -1.09,1.129 -0.348,0.391 -0.699,0.789 -1.059,1.211 -0.308,0.399 -0.66,0.828 -0.968,1.258 -0.313,0.391 -0.633,0.82 -0.903,1.281 -0.308,0.43 -0.589,0.86 -0.859,1.328 -0.27,0.434 -0.551,0.903 -0.781,1.371 -0.27,0.469 -0.508,0.942 -0.739,1.411 -0.242,0.46 -0.429,0.929 -0.628,1.441 -0.231,0.469 -0.391,0.98 -0.582,1.449 z m 223.628,162.57 c -15.308,-23.16 -35.976,-52.769 -58.476,-82.07 -61.051,12.309 -125.781,19.57 -162.422,6.219 -36.68,-13.328 -81.602,-60.508 -120.43,-109.18 -36.09,8 -70.9411,17.422 -97.5817,25.313 46.6837,80.508 125.8637,196.047 171.1717,212.539 45.238,16.48 180.199,-21.141 267.738,-52.821 z"
       style="fill:#ffffff;fill-opacity:1;fill-rule:evenodd;stroke:none"
       id="path1255" /></g></svg>
