<?xml version="1.0" encoding="UTF-8" standalone="no"?>
<svg
   width="149.25pt"
   height="125.921684pt"
   viewBox="0 0 149.25 125.921684"
   version="1.1"
   id="svg451"
   xmlns="http://www.w3.org/2000/svg"
   xmlns:svg="http://www.w3.org/2000/svg">
  <defs
     id="defs455" />
  <path
     fill-rule="evenodd"
     fill="rgb(39.99939%, 22.3526%, 65.097046%)"
     fill-opacity="1"
     d="M 17.910156 109.425781 C 23.882812 111.71875 76.859375 131.628906 96.957031 124.316406 C 117.050781 117 144.835938 67.695312 147.9375 62.097656 L 149.25 59.734375 L 133.863281 17.460938 L 131.339844 16.496094 C 125.367188 14.199219 72.386719 -5.707031 52.292969 1.605469 C 32.199219 8.921875 4.414062 58.226562 1.3125 63.824219 L 0 66.1875 L 15.386719 108.457031 Z M 27.125 100.1875 C 30.890625 94.5 35.957031 87.222656 41.492188 80.023438 C 56.488281 83.046875 72.382812 84.832031 81.390625 81.550781 C 90.398438 78.273438 101.433594 66.6875 110.972656 54.734375 C 119.839844 56.691406 128.402344 59.007812 134.941406 60.949219 C 123.476562 80.730469 104.023438 109.113281 92.898438 113.160156 C 81.78125 117.207031 48.632812 107.96875 27.125 100.1875 Z M 47.097656 72.980469 C 55.398438 62.914062 64.074219 54.167969 70.566406 51.804688 C 77.054688 49.445312 89.324219 50.570312 102.15625 52.941406 C 93.851562 63.007812 85.175781 71.753906 78.6875 74.117188 C 72.195312 76.476562 59.925781 75.355469 47.097656 72.980469 Z M 133.949219 52.398438 C 129.117188 51.003906 122.996094 49.339844 116.339844 47.777344 C 120.433594 42.304688 124.054688 37.09375 126.859375 32.917969 Z M 15.300781 73.519531 C 20.136719 74.917969 26.253906 76.582031 32.910156 78.144531 C 28.816406 83.617188 25.199219 88.824219 22.394531 93.003906 Z M 67.1875 65.667969 C 67.144531 65.546875 67.101562 65.425781 67.0625 65.300781 C 67.027344 65.175781 66.992188 65.050781 66.957031 64.925781 C 66.925781 64.800781 66.898438 64.675781 66.871094 64.546875 C 66.84375 64.421875 66.824219 64.292969 66.804688 64.164062 C 66.785156 64.039062 66.765625 63.910156 66.753906 63.78125 C 66.738281 63.652344 66.730469 63.523438 66.722656 63.394531 C 66.714844 63.265625 66.710938 63.132812 66.710938 63.003906 C 66.710938 62.875 66.710938 62.746094 66.71875 62.617188 C 66.722656 62.488281 66.734375 62.359375 66.746094 62.230469 C 66.757812 62.101562 66.773438 61.972656 66.789062 61.84375 C 66.808594 61.714844 66.828125 61.585938 66.855469 61.460938 C 66.878906 61.332031 66.90625 61.207031 66.9375 61.082031 C 66.96875 60.953125 67.003906 60.828125 67.039062 60.707031 C 67.074219 60.582031 67.117188 60.457031 67.160156 60.335938 C 67.203125 60.214844 67.25 60.09375 67.296875 59.972656 C 67.347656 59.851562 67.398438 59.734375 67.453125 59.617188 C 67.507812 59.5 67.566406 59.382812 67.625 59.269531 C 67.6875 59.152344 67.75 59.042969 67.816406 58.929688 C 67.878906 58.816406 67.949219 58.707031 68.019531 58.601562 C 68.09375 58.492188 68.167969 58.386719 68.242188 58.28125 C 68.320312 58.175781 68.398438 58.074219 68.480469 57.972656 C 68.5625 57.875 68.644531 57.773438 68.730469 57.679688 C 68.820312 57.582031 68.90625 57.488281 69 57.394531 C 69.089844 57.304688 69.183594 57.214844 69.277344 57.125 C 69.375 57.039062 69.472656 56.953125 69.570312 56.871094 C 69.671875 56.789062 69.773438 56.707031 69.875 56.628906 C 69.980469 56.550781 70.085938 56.476562 70.191406 56.40625 C 70.300781 56.332031 70.410156 56.261719 70.519531 56.195312 C 70.628906 56.128906 70.742188 56.0625 70.855469 56 C 70.96875 55.941406 71.085938 55.882812 71.203125 55.824219 C 71.320312 55.769531 71.4375 55.714844 71.558594 55.664062 C 71.675781 55.617188 71.796875 55.566406 71.917969 55.523438 C 72.039062 55.480469 72.164062 55.4375 72.285156 55.398438 C 72.410156 55.363281 72.535156 55.328125 72.660156 55.292969 C 72.785156 55.261719 72.914062 55.234375 73.039062 55.207031 C 73.167969 55.179688 73.292969 55.160156 73.421875 55.140625 C 73.550781 55.117188 73.679688 55.101562 73.808594 55.089844 C 73.9375 55.074219 74.066406 55.066406 74.195312 55.058594 C 74.324219 55.050781 74.453125 55.046875 74.582031 55.046875 C 74.710938 55.046875 74.839844 55.046875 74.972656 55.054688 C 75.101562 55.058594 75.230469 55.070312 75.359375 55.082031 C 75.488281 55.09375 75.617188 55.109375 75.746094 55.125 C 75.871094 55.144531 76 55.164062 76.128906 55.191406 C 76.253906 55.214844 76.382812 55.242188 76.507812 55.273438 C 76.632812 55.304688 76.757812 55.339844 76.882812 55.375 C 77.007812 55.410156 77.128906 55.453125 77.25 55.496094 C 77.375 55.539062 77.496094 55.582031 77.613281 55.632812 C 77.734375 55.683594 77.851562 55.734375 77.96875 55.789062 C 78.089844 55.84375 78.203125 55.902344 78.320312 55.960938 C 78.433594 56.019531 78.546875 56.085938 78.65625 56.152344 C 78.769531 56.214844 78.878906 56.285156 78.988281 56.355469 C 79.09375 56.429688 79.203125 56.503906 79.304688 56.578125 C 79.410156 56.65625 79.511719 56.734375 79.613281 56.816406 C 79.714844 56.898438 79.8125 56.980469 79.910156 57.066406 C 80.003906 57.15625 80.097656 57.242188 80.191406 57.335938 C 80.285156 57.425781 80.375 57.519531 80.460938 57.613281 C 80.546875 57.710938 80.632812 57.808594 80.714844 57.90625 C 80.800781 58.007812 80.878906 58.109375 80.957031 58.210938 C 81.035156 58.316406 81.109375 58.421875 81.183594 58.527344 C 81.253906 58.636719 81.324219 58.746094 81.390625 58.855469 C 81.460938 58.964844 81.523438 59.078125 81.585938 59.191406 C 81.648438 59.304688 81.707031 59.421875 81.761719 59.539062 C 81.816406 59.65625 81.871094 59.773438 81.921875 59.894531 C 81.972656 60.011719 82.019531 60.132812 82.0625 60.253906 C 82.109375 60.375 82.148438 60.5 82.1875 60.621094 C 82.226562 60.746094 82.261719 60.871094 82.292969 60.996094 C 82.324219 61.121094 82.355469 61.25 82.378906 61.375 C 82.40625 61.5 82.429688 61.628906 82.449219 61.757812 C 82.46875 61.886719 82.484375 62.015625 82.5 62.144531 C 82.511719 62.273438 82.523438 62.402344 82.527344 62.53125 C 82.535156 62.660156 82.539062 62.789062 82.539062 62.917969 C 82.542969 63.046875 82.539062 63.175781 82.53125 63.308594 C 82.527344 63.4375 82.519531 63.566406 82.507812 63.695312 C 82.496094 63.824219 82.480469 63.953125 82.460938 64.082031 C 82.441406 64.207031 82.421875 64.335938 82.398438 64.464844 C 82.371094 64.589844 82.34375 64.71875 82.3125 64.84375 C 82.28125 64.96875 82.25 65.09375 82.210938 65.21875 C 82.175781 65.34375 82.136719 65.464844 82.09375 65.585938 C 82.050781 65.710938 82.003906 65.832031 81.953125 65.949219 C 81.90625 66.070312 81.855469 66.1875 81.800781 66.304688 C 81.746094 66.425781 81.6875 66.539062 81.625 66.65625 C 81.566406 66.769531 81.503906 66.882812 81.4375 66.992188 C 81.371094 67.105469 81.300781 67.214844 81.230469 67.324219 C 81.160156 67.429688 81.085938 67.539062 81.007812 67.640625 C 80.933594 67.746094 80.851562 67.847656 80.769531 67.949219 C 80.691406 68.050781 80.605469 68.148438 80.519531 68.246094 C 80.433594 68.339844 80.34375 68.433594 80.253906 68.527344 C 80.160156 68.621094 80.070312 68.710938 79.972656 68.796875 C 79.878906 68.882812 79.78125 68.96875 79.679688 69.050781 C 79.582031 69.136719 79.480469 69.214844 79.375 69.292969 C 79.273438 69.371094 79.167969 69.445312 79.058594 69.519531 C 78.953125 69.589844 78.84375 69.660156 78.730469 69.726562 C 78.621094 69.796875 78.507812 69.859375 78.394531 69.921875 C 78.28125 69.984375 78.164062 70.042969 78.046875 70.097656 C 77.933594 70.152344 77.8125 70.207031 77.695312 70.257812 C 77.574219 70.308594 77.453125 70.355469 77.332031 70.398438 C 77.210938 70.441406 77.089844 70.484375 76.964844 70.523438 C 76.839844 70.5625 76.714844 70.597656 76.589844 70.628906 C 76.464844 70.660156 76.339844 70.691406 76.210938 70.714844 C 76.085938 70.742188 75.957031 70.765625 75.828125 70.785156 C 75.703125 70.804688 75.574219 70.820312 75.445312 70.832031 C 75.316406 70.847656 75.1875 70.859375 75.058594 70.863281 C 74.929688 70.871094 74.796875 70.875 74.667969 70.875 C 74.539062 70.875 74.410156 70.875 74.28125 70.867188 C 74.152344 70.863281 74.023438 70.855469 73.894531 70.84375 C 73.765625 70.832031 73.636719 70.816406 73.507812 70.796875 C 73.378906 70.777344 73.25 70.757812 73.125 70.734375 C 72.996094 70.707031 72.871094 70.679688 72.746094 70.648438 C 72.617188 70.617188 72.492188 70.585938 72.371094 70.546875 C 72.246094 70.511719 72.121094 70.472656 72 70.429688 C 71.878906 70.386719 71.757812 70.339844 71.636719 70.289062 C 71.515625 70.242188 71.398438 70.1875 71.28125 70.136719 C 71.164062 70.078125 71.046875 70.023438 70.933594 69.960938 C 70.816406 69.902344 70.707031 69.839844 70.59375 69.773438 C 70.480469 69.707031 70.371094 69.636719 70.265625 69.566406 C 70.15625 69.496094 70.050781 69.421875 69.945312 69.34375 C 69.839844 69.269531 69.738281 69.1875 69.636719 69.105469 C 69.539062 69.027344 69.4375 68.941406 69.34375 68.855469 C 69.246094 68.769531 69.152344 68.679688 69.058594 68.589844 C 68.96875 68.496094 68.878906 68.402344 68.789062 68.308594 C 68.703125 68.214844 68.617188 68.117188 68.535156 68.015625 C 68.453125 67.917969 68.371094 67.816406 68.292969 67.710938 C 68.214844 67.605469 68.140625 67.5 68.070312 67.394531 C 67.996094 67.289062 67.925781 67.179688 67.859375 67.066406 C 67.792969 66.957031 67.726562 66.84375 67.664062 66.730469 C 67.605469 66.617188 67.546875 66.5 67.488281 66.382812 C 67.433594 66.269531 67.378906 66.148438 67.328125 66.03125 C 67.28125 65.910156 67.234375 65.789062 67.1875 65.667969 Z M 122.125 25.730469 C 118.359375 31.425781 113.289062 38.699219 107.757812 45.898438 C 92.765625 42.875 76.863281 41.089844 67.859375 44.367188 C 58.851562 47.644531 47.820312 59.230469 38.277344 71.1875 C 29.410156 69.226562 20.851562 66.910156 14.3125 64.972656 C 25.777344 45.191406 45.226562 16.8125 56.355469 12.761719 C 67.46875 8.714844 100.617188 17.953125 122.125 25.730469 Z M 122.125 25.730469 "
     id="path449"
     style="fill:#ffffff;fill-opacity:1" />
</svg>
