<svg xmlns="http://www.w3.org/2000/svg" viewBox="0 0 280 480" fill="none">
  <defs>
    <linearGradient id="mv-bg" x1="0" y1="0" x2="0" y2="1">
      <stop offset="0%" stop-color="#FAFAFA"/><stop offset="100%" stop-color="#F5F3FF"/>
    </linearGradient>
    <linearGradient id="mv-helmet" x1="0" y1="0" x2="1" y2="1">
      <stop offset="0%" stop-color="#E5E7EB"/><stop offset="40%" stop-color="#D1D5DB"/>
      <stop offset="100%" stop-color="#9CA3AF"/>
    </linearGradient>
    <linearGradient id="mv-visor" x1="0" y1="0" x2="1" y2="1">
      <stop offset="0%" stop-color="#7B61FF" stop-opacity="0.6"/>
      <stop offset="100%" stop-color="#06B6D4" stop-opacity="0.4"/>
    </linearGradient>
    <filter id="mv-shadow" x="-8%" y="-8%" width="116%" height="116%">
      <feDropShadow dx="0" dy="4" stdDeviation="8" flood-color="#7B61FF" flood-opacity="0.12"/>
    </filter>
  </defs>
  <!-- Phone frame -->
  <rect x="10" y="10" width="260" height="460" rx="36" fill="#E5E5E5"/>
  <rect x="12" y="12" width="256" height="456" rx="34" fill="#F5F5F5"/>
  <rect x="24" y="32" width="232" height="416" rx="6" fill="url(#mv-bg)"/>
  <rect x="90" y="14" width="100" height="22" rx="11" fill="#E5E5E5"/>
  <!-- Status bar -->
  <text x="40" y="50" font-family="system-ui" font-size="10" fill="#666" font-weight="600">9:41</text>
  <!-- App bar -->
  <text x="140" y="72" font-family="system-ui" font-size="13" fill="#1A1A1A" text-anchor="middle" font-weight="700">Model Viewer</text>
  <!-- 3D viewport -->
  <rect x="34" y="86" width="212" height="220" rx="24" fill="white" filter="url(#mv-shadow)" stroke="#E9D5FF" stroke-width="0.5"/>
  <!-- Astronaut helmet (simplified 3D model representation) -->
  <g transform="translate(100, 140)">
    <ellipse cx="40" cy="100" rx="35" ry="6" fill="#E5E7EB" opacity="0.5"/>
    <!-- Helmet body -->
    <ellipse cx="40" cy="50" rx="45" ry="50" fill="url(#mv-helmet)"/>
    <!-- Visor -->
    <ellipse cx="40" cy="45" rx="32" ry="30" fill="url(#mv-visor)"/>
    <!-- Visor reflection -->
    <path d="M20,35 Q30,20 50,25" stroke="white" stroke-width="2" fill="none" opacity="0.5" stroke-linecap="round"/>
    <!-- Helmet rim -->
    <path d="M-5,55 Q40,75 85,55" stroke="#9CA3AF" stroke-width="2" fill="none"/>
    <!-- Backpack hint -->
    <rect x="55" y="60" width="20" height="30" rx="4" fill="#9CA3AF" opacity="0.6"/>
    <!-- Antenna -->
    <line x1="65" y1="10" x2="75" y2="-10" stroke="#9CA3AF" stroke-width="2" stroke-linecap="round"/>
    <circle cx="75" cy="-12" r="3" fill="#EF4444"/>
  </g>
  <!-- Rotation orbit line -->
  <ellipse cx="140" cy="250" rx="70" ry="15" fill="none" stroke="#7B61FF" stroke-width="1" stroke-dasharray="4,3" opacity="0.3"/>
  <!-- HDR selector -->
  <g transform="translate(34, 320)">
    <text x="0" y="0" font-family="system-ui" font-size="9" fill="#666" font-weight="700">ENVIRONMENT</text>
    <g transform="translate(0, 10)">
      <rect x="0" y="0" width="48" height="36" rx="10" fill="#1E1B4B" stroke="#7B61FF" stroke-width="1.5"/>
      <text x="24" y="22" font-family="system-ui" font-size="7" fill="white" text-anchor="middle" font-weight="600">Night</text>
      <rect x="54" y="0" width="48" height="36" rx="10" fill="#F5F3FF" stroke="#E5E7EB"/>
      <text x="78" y="22" font-family="system-ui" font-size="7" fill="#666" text-anchor="middle">Studio</text>
      <rect x="108" y="0" width="48" height="36" rx="10" fill="#FFF7ED" stroke="#E5E7EB"/>
      <text x="132" y="22" font-family="system-ui" font-size="7" fill="#666" text-anchor="middle">Warm</text>
      <rect x="162" y="0" width="48" height="36" rx="10" fill="#ECFDF5" stroke="#E5E7EB"/>
      <text x="186" y="22" font-family="system-ui" font-size="7" fill="#666" text-anchor="middle">Park</text>
    </g>
  </g>
  <!-- Animation controls -->
  <g transform="translate(34, 380)">
    <text x="0" y="0" font-family="system-ui" font-size="9" fill="#666" font-weight="700">ANIMATION</text>
    <rect x="0" y="10" width="212" height="36" rx="18" fill="#F5F3FF" stroke="#E9D5FF"/>
    <circle cx="24" cy="28" r="12" fill="#7B61FF"/>
    <polygon points="21,24 21,32 29,28" fill="white"/>
    <text x="48" y="32" font-family="system-ui" font-size="9" fill="#333" font-weight="600">Walk cycle</text>
    <rect x="120" y="22" width="80" height="12" rx="6" fill="#E9D5FF"/>
    <rect x="120" y="22" width="45" height="12" rx="6" fill="#7B61FF"/>
    <text x="210" y="32" font-family="system-ui" font-size="8" fill="#A78BFA" text-anchor="end">1.2x</text>
  </g>
  <!-- Model selector chips -->
  <g transform="translate(34, 430)">
    <rect x="0" y="0" width="60" height="22" rx="11" fill="#7B61FF"/>
    <text x="30" y="15" font-family="system-ui" font-size="8" fill="white" text-anchor="middle" font-weight="600">Astronaut</text>
    <rect x="66" y="0" width="42" height="22" rx="11" fill="white" stroke="#E5E7EB"/>
    <text x="87" y="15" font-family="system-ui" font-size="8" fill="#666" text-anchor="middle">Fox</text>
    <rect x="114" y="0" width="50" height="22" rx="11" fill="white" stroke="#E5E7EB"/>
    <text x="139" y="15" font-family="system-ui" font-size="8" fill="#666" text-anchor="middle">Helmet</text>
    <rect x="170" y="0" width="42" height="22" rx="11" fill="white" stroke="#E5E7EB"/>
    <text x="191" y="15" font-family="system-ui" font-size="8" fill="#666" text-anchor="middle">Car</text>
  </g>
</svg>
